<svg xmlns="http://www.w3.org/2000/svg">
<symbol id="i-filtros" viewBox="0 0 24 24"><rect x="6" y="5" width="12" height="15" rx="2"/><path d="M6 9h12M9 5V3h6v2M9 13h6M9 16h6"/></symbol>
<symbol id="i-frenos" viewBox="0 0 24 24"><circle cx="12" cy="12" r="9"/><circle cx="12" cy="12" r="3"/><path d="M12 3v3M12 18v3M3 12h3M18 12h3"/><path d="M6.5 7.5a7 7 0 0 1 11 0" stroke-dasharray="1 2"/></symbol>
<symbol id="i-suspension" viewBox="0 0 24 24"><path d="M3 14c3-5 15-5 18 0M5 17c3-3 11-3 14 0M8 20c2-1.5 6-1.5 8 0"/><circle cx="3" cy="14" r="1.5"/><circle cx="21" cy="14" r="1.5"/></symbol>
<symbol id="i-motor" viewBox="0 0 24 24"><rect x="7" y="3" width="10" height="6" rx="1"/><path d="M12 9v4"/><path d="M9 13h6l2 4H7z"/><circle cx="12" cy="20" r="1.5"/><path d="M9 6h6"/></symbol>
<symbol id="i-electrico" viewBox="0 0 24 24"><path d="M13 2 5 14h6l-1 8 9-13h-6z"/></symbol>
<symbol id="i-refrigeracion" viewBox="0 0 24 24"><rect x="4" y="5" width="16" height="12" rx="1.5"/><path d="M8 5v12M12 5v12M16 5v12"/><path d="M4 20c2-1.5 4 1.5 6 0s4 1.5 6 0 4 1.5 4 0"/></symbol>
<symbol id="i-cabina" viewBox="0 0 24 24"><path d="M4 18V7a2 2 0 0 1 2-2h9l5 5v8"/><path d="M4 18h16"/><path d="M8 5v4h9"/><circle cx="8" cy="19" r="2"/><circle cx="16" cy="19" r="2"/></symbol>
<symbol id="i-carretas" viewBox="0 0 24 24"><rect x="2" y="5" width="16" height="10" rx="1"/><path d="M18 12h4M2 15v2"/><circle cx="8" cy="18" r="2"/><circle cx="14" cy="18" r="2"/></symbol>
<symbol id="i-mangueras" viewBox="0 0 24 24"><path d="M5 6c6 0 6 12 12 12"/><rect x="2" y="4" width="5" height="4" rx="1"/><rect x="17" y="16" width="5" height="4" rx="1"/><path d="M7 6h2M15 18h2"/></symbol>
<symbol id="i-fijaciones" viewBox="0 0 24 24"><path d="M12 2.5 20.2 7v10L12 21.5 3.8 17V7z"/><circle cx="12" cy="12" r="3.2"/></symbol>
<symbol id="i-transmision" viewBox="0 0 24 24"><circle cx="12" cy="12" r="5.5"/><circle cx="12" cy="12" r="2"/><path d="M12 3v3.5M12 17.5V21M3 12h3.5M17.5 12H21M5.6 5.6l2.5 2.5M15.9 15.9l2.5 2.5M5.6 18.4l2.5-2.5M15.9 8.1l2.5-2.5"/></symbol>
<symbol id="i-aire" viewBox="0 0 24 24"><circle cx="12" cy="9" r="4"/><path d="M12 13v8M4 21h16M8 9H3M21 9h-5"/><path d="M12 5V2"/></symbol>
<symbol id="i-ejes" viewBox="0 0 24 24"><circle cx="12" cy="12" r="9"/><circle cx="12" cy="12" r="3.5"/><circle cx="12" cy="5.8" r="1.2"/><circle cx="18.2" cy="12" r="1.2"/><circle cx="12" cy="18.2" r="1.2"/><circle cx="5.8" cy="12" r="1.2"/><circle cx="16.4" cy="7.6" r="1.2"/><circle cx="16.4" cy="16.4" r="1.2"/><circle cx="7.6" cy="16.4" r="1.2"/><circle cx="7.6" cy="7.6" r="1.2"/></symbol>
<symbol id="i-escape" viewBox="0 0 24 24"><path d="M3 17h9a4 4 0 0 0 4-4V7h3"/><ellipse cx="19.5" cy="7" rx="1.5" ry="2.5"/><path d="M3 14v6"/><path d="M20 3c.5-.5 1-.5 1.5 0"/></symbol>
<symbol id="i-herramientas" viewBox="0 0 24 24"><path d="M14.5 3.5a5 5 0 0 0-6 6.4L3 15.4 5.6 18l5.5-5.5a5 5 0 0 0 6.4-6l-2.8 2.8-2.6-.6-.6-2.6z"/><path d="M14 14l5 5"/></symbol>
<symbol id="i-accesorios" viewBox="0 0 24 24"><path d="M12 3 4 7v10l8 4 8-4V7z"/><path d="M4 7l8 4 8-4M12 11v10"/></symbol>
<symbol id="i-otros" viewBox="0 0 24 24"><circle cx="6" cy="12" r="1.8"/><circle cx="12" cy="12" r="1.8"/><circle cx="18" cy="12" r="1.8"/></symbol>
<symbol id="i-buscar" viewBox="0 0 24 24"><circle cx="11" cy="11" r="7"/><path d="m20 20-3.6-3.6"/></symbol>
<symbol id="i-catalogo" viewBox="0 0 24 24"><rect x="3" y="3" width="8" height="8" rx="1.5"/><rect x="13" y="3" width="8" height="8" rx="1.5"/><rect x="3" y="13" width="8" height="8" rx="1.5"/><rect x="13" y="13" width="8" height="8" rx="1.5"/></symbol>
<symbol id="i-pin" viewBox="0 0 24 24"><path d="M12 22s7-6.2 7-12a7 7 0 0 0-14 0c0 5.8 7 12 7 12z"/><circle cx="12" cy="10" r="2.5"/></symbol>
<symbol id="i-flecha" viewBox="0 0 24 24"><path d="M5 12h14M13 6l6 6-6 6"/></symbol>
<symbol id="i-wa" viewBox="0 0 24 24"><path fill="currentColor" stroke="none" d="M12 2a10 10 0 0 0-8.6 15.1L2 22l5-1.3A10 10 0 1 0 12 2zm0 18.2a8.2 8.2 0 0 1-4.2-1.2l-.3-.2-3 .8.8-2.9-.2-.3A8.2 8.2 0 1 1 12 20.2zm4.5-6.1c-.2-.1-1.5-.7-1.7-.8s-.4-.1-.6.1-.6.8-.8 1-.3.2-.5.1a6.7 6.7 0 0 1-3.3-2.9c-.3-.4.2-.4.7-1.3.1-.2 0-.3 0-.4l-.8-1.8c-.2-.5-.4-.4-.6-.4h-.5a1 1 0 0 0-.7.3 3 3 0 0 0-.9 2.2 5.2 5.2 0 0 0 1.1 2.8 12 12 0 0 0 4.6 4c1.7.7 2.3.8 3.2.7a2.7 2.7 0 0 0 1.8-1.3 2.2 2.2 0 0 0 .2-1.3c-.1-.1-.3-.2-.5-.3z"/></symbol>
<symbol id="i-camion" viewBox="0 0 320 120"><path class="tr" d="M8 88h14a10 10 0 0 1 20 0h130a10 10 0 0 1 20 0h6V44H8z"/><path class="tr" d="M198 88h30a10 10 0 0 1 20 0h20a10 10 0 0 1 20 0h20V60l-10-24h-46l-10 10h-24z"/><path class="tr" d="M258 40v18h30M244 46v14h10M198 62h20M8 60h190"/><circle class="tr" cx="32" cy="90" r="10"/><circle class="tr" cx="172" cy="90" r="10"/><circle class="tr" cx="238" cy="90" r="10"/><circle class="tr" cx="278" cy="90" r="10"/><path class="tr" d="M226 100h-20M24 100h130"/></symbol>
</svg>
